<svg id="visual" viewBox="0 0 900 600" width="900" height="600" xmlns="http://www.w3.org/2000/svg" xmlns:xlink="http://www.w3.org/1999/xlink" version="1.1"><rect x="0" y="0" width="900" height="600" fill="#000000"></rect><path d="M0 406L16.7 412.2C33.3 418.3 66.7 430.7 100 432.3C133.3 434 166.7 425 200 424.8C233.3 424.7 266.7 433.3 300 432.5C333.3 431.7 366.7 421.3 400 431C433.3 440.7 466.7 470.3 500 469.8C533.3 469.3 566.7 438.7 600 424.8C633.3 411 666.7 414 700 419.7C733.3 425.3 766.7 433.7 800 440.8C833.3 448 866.7 454 883.3 457L900 460L900 601L883.3 601C866.7 601 833.3 601 800 601C766.7 601 733.3 601 700 601C666.7 601 633.3 601 600 601C566.7 601 533.3 601 500 601C466.7 601 433.3 601 400 601C366.7 601 333.3 601 300 601C266.7 601 233.3 601 200 601C166.7 601 133.3 601 100 601C66.7 601 33.3 601 16.7 601L0 601Z" fill="#4fe8f7" stroke-linecap="round" stroke-linejoin="miter"></path></svg>