<svg id="visual" viewBox="0 0 900 600" width="900" height="600" xmlns="http://www.w3.org/2000/svg" xmlns:xlink="http://www.w3.org/1999/xlink" version="1.1"><rect x="0" y="0" width="900" height="600" fill="#002233"></rect><path d="M0 470L21.5 470.7C43 471.3 86 472.7 128.8 458C171.7 443.3 214.3 412.7 257.2 390C300 367.3 343 352.7 385.8 359.8C428.7 367 471.3 396 514.2 414.2C557 432.3 600 439.7 642.8 445C685.7 450.3 728.3 453.7 771.2 448C814 442.3 857 427.7 878.5 420.3L900 413L900 601L878.5 601C857 601 814 601 771.2 601C728.3 601 685.7 601 642.8 601C600 601 557 601 514.2 601C471.3 601 428.7 601 385.8 601C343 601 300 601 257.2 601C214.3 601 171.7 601 128.8 601C86 601 43 601 21.5 601L0 601Z" fill="#0066FF" stroke-linecap="round" stroke-linejoin="miter"></path></svg>